<svg width="122" height="50" viewBox="0 0 122 50" fill="none" xmlns="http://www.w3.org/2000/svg">
<path d="M0.738517 49.5L20.3385 0.5H49.2615L29.6615 49.5H0.738517Z" fill="#FC1D1D" stroke="white"/>
<path d="M27.3182 18.9091L28.6541 28.4972H28.7628L33.282 18.9091H36.8232L30.233 32H26.0206L23.777 18.9091H27.3182ZM37.6589 32.1662C37.0368 32.1662 36.4998 32.0618 36.0481 31.853C35.6007 31.6399 35.2725 31.3182 35.0637 30.8878C34.8592 30.4574 34.8102 29.9205 34.9167 29.277C35.0105 28.7315 35.1831 28.2734 35.4345 27.9027C35.6902 27.5277 36.0034 27.223 36.3741 26.9886C36.7491 26.7543 37.1667 26.5753 37.627 26.4517C38.0872 26.3281 38.5687 26.245 39.0716 26.2024C39.6341 26.1513 40.09 26.0959 40.4395 26.0362C40.7931 25.9766 41.0574 25.8935 41.2321 25.7869C41.4068 25.6761 41.5133 25.5227 41.5517 25.3267V25.2947C41.6028 24.9666 41.5325 24.7131 41.3407 24.5341C41.149 24.3551 40.8613 24.2656 40.4778 24.2656C40.0687 24.2656 39.7193 24.3551 39.4295 24.5341C39.1397 24.7131 38.9373 24.9602 38.8223 25.2756L35.9586 25.1733C36.1376 24.5767 36.4444 24.044 36.8791 23.5753C37.3137 23.1023 37.8656 22.7315 38.5346 22.4631C39.2079 22.1903 39.9856 22.054 40.8677 22.054C41.4899 22.054 42.0524 22.1286 42.5552 22.2777C43.0581 22.4226 43.4821 22.6357 43.8272 22.9169C44.1767 23.1939 44.426 23.5348 44.5751 23.9396C44.7243 24.3445 44.7562 24.8068 44.671 25.3267L43.5524 32H40.612L40.8422 30.6321H40.7654C40.5353 30.9645 40.2647 31.2457 39.9537 31.4759C39.6468 31.706 39.3017 31.8786 38.9181 31.9936C38.5346 32.1087 38.1149 32.1662 37.6589 32.1662ZM38.9757 30.1207C39.3038 30.1207 39.6149 30.0526 39.9089 29.9162C40.2029 29.7798 40.4501 29.5923 40.6504 29.3537C40.8549 29.1108 40.9849 28.8295 41.0403 28.5099L41.1873 27.5767C41.0978 27.6236 40.9849 27.6662 40.8485 27.7045C40.7122 27.7429 40.5673 27.7791 40.4139 27.8132C40.2605 27.843 40.1028 27.8729 39.9409 27.9027C39.7832 27.9283 39.6319 27.9517 39.487 27.973C39.1802 28.0199 38.9139 28.0923 38.688 28.1903C38.4622 28.2884 38.2811 28.4162 38.1447 28.5739C38.0126 28.7273 37.9316 28.9105 37.9018 29.1236C37.8507 29.4432 37.9252 29.6903 38.1255 29.8651C38.3258 30.0355 38.6092 30.1207 38.9757 30.1207ZM49.4267 35.8864C48.4892 35.8864 47.7093 35.7564 47.0872 35.4964C46.465 35.2365 46.0005 34.8807 45.6937 34.429C45.3869 33.9773 45.2399 33.4659 45.2527 32.8949L48.2441 32.7287C48.2697 32.9332 48.3443 33.1101 48.4679 33.2592C48.5914 33.4084 48.7683 33.5213 48.9984 33.598C49.2285 33.679 49.514 33.7195 49.8549 33.7195C50.3791 33.7195 50.835 33.5916 51.2228 33.3359C51.6106 33.0803 51.8493 32.6392 51.9387 32.0128L52.2264 30.2869H52.1177C51.9473 30.5895 51.7172 30.8601 51.4274 31.0987C51.1376 31.3374 50.7946 31.5249 50.3983 31.6612C50.002 31.7976 49.563 31.8658 49.0815 31.8658C48.3613 31.8658 47.7328 31.6996 47.1958 31.3672C46.6589 31.0305 46.2711 30.5107 46.0325 29.8075C45.7939 29.1001 45.7662 28.1903 45.9494 27.0781C46.1412 25.9318 46.4821 24.9879 46.9721 24.2464C47.4622 23.5007 48.0332 22.9489 48.6852 22.5909C49.3414 22.233 50.0126 22.054 50.6987 22.054C51.2143 22.054 51.6404 22.1435 51.9771 22.3224C52.3137 22.4972 52.5779 22.723 52.7697 23C52.9615 23.277 53.0978 23.5646 53.1788 23.8629H53.2683L53.5431 22.1818H56.6561L55.0197 32.0384C54.8876 32.8736 54.5659 33.5767 54.0545 34.1477C53.5431 34.7188 52.889 35.1513 52.0922 35.4453C51.2953 35.7393 50.4068 35.8864 49.4267 35.8864ZM50.5261 29.5902C50.9054 29.5902 51.2484 29.4901 51.5552 29.2898C51.862 29.0895 52.1199 28.8018 52.3287 28.4268C52.5375 28.0518 52.6845 27.6023 52.7697 27.0781C52.8549 26.5455 52.8549 26.0874 52.7697 25.7038C52.6887 25.3161 52.5311 25.0178 52.2967 24.8089C52.0623 24.6001 51.7534 24.4957 51.3699 24.4957C50.9821 24.4957 50.6369 24.6023 50.3343 24.8153C50.036 25.0284 49.7846 25.3288 49.5801 25.7166C49.3798 26.1001 49.2392 26.554 49.1582 27.0781C49.073 27.6023 49.0666 28.0518 49.139 28.4268C49.2157 28.8018 49.3691 29.0895 49.5993 29.2898C49.8336 29.4901 50.1426 29.5902 50.5261 29.5902ZM67.0671 23.1854C67.0415 22.9169 66.9819 22.6804 66.8881 22.4759C66.7944 22.267 66.6665 22.0902 66.5046 21.9453C66.3427 21.8004 66.1424 21.6918 65.9038 21.6193C65.6651 21.5426 65.3881 21.5043 65.0728 21.5043C64.4421 21.5043 63.8583 21.6577 63.3214 21.9645C62.7844 22.2713 62.3306 22.7187 61.9599 23.3068C61.5891 23.8906 61.3356 24.6001 61.1992 25.4354C61.0629 26.2749 61.0586 26.9908 61.1864 27.5831C61.3185 28.1754 61.5827 28.6271 61.979 28.9382C62.3754 29.2493 62.8995 29.4048 63.5515 29.4048C64.1353 29.4048 64.6509 29.3111 65.0984 29.1236C65.5458 28.9318 65.908 28.6612 66.185 28.3118C66.4663 27.9624 66.6431 27.5511 66.7156 27.0781L67.2972 27.1484H64.114L64.4975 24.8409H70.1353L69.8477 26.5732C69.6559 27.745 69.2425 28.7486 68.6076 29.5838C67.9769 30.419 67.1886 31.0604 66.2425 31.5078C65.3008 31.9553 64.2674 32.179 63.1424 32.179C61.8981 32.179 60.8477 31.9084 59.9911 31.3672C59.1346 30.826 58.5252 30.0547 58.163 29.0533C57.8008 28.0476 57.7326 26.8544 57.9585 25.4737C58.1374 24.3999 58.4549 23.4474 58.9109 22.6165C59.3711 21.7812 59.9336 21.0739 60.5984 20.4943C61.2674 19.9148 62.0067 19.4759 62.8164 19.1776C63.6261 18.8793 64.4677 18.7301 65.3413 18.7301C66.0955 18.7301 66.7816 18.8388 67.3995 19.0561C68.0174 19.2734 68.5458 19.5803 68.9847 19.9766C69.4237 20.3729 69.7539 20.8438 69.9755 21.3892C70.2013 21.9347 70.2994 22.5334 70.2695 23.1854H67.0671ZM73.5534 32.1662C72.9313 32.1662 72.3944 32.0618 71.9426 31.853C71.4952 31.6399 71.1671 31.3182 70.9583 30.8878C70.7537 30.4574 70.7047 29.9205 70.8113 29.277C70.905 28.7315 71.0776 28.2734 71.329 27.9027C71.5847 27.5277 71.8979 27.223 72.2686 26.9886C72.6436 26.7543 73.0613 26.5753 73.5215 26.4517C73.9817 26.3281 74.4632 26.245 74.9661 26.2024C75.5286 26.1513 75.9846 26.0959 76.334 26.0362C76.6877 25.9766 76.9519 25.8935 77.1266 25.7869C77.3013 25.6761 77.4078 25.5227 77.4462 25.3267V25.2947C77.4973 24.9666 77.427 24.7131 77.2353 24.5341C77.0435 24.3551 76.7559 24.2656 76.3723 24.2656C75.9632 24.2656 75.6138 24.3551 75.324 24.5341C75.0343 24.7131 74.8319 24.9602 74.7168 25.2756L71.8532 25.1733C72.0321 24.5767 72.339 24.044 72.7736 23.5753C73.2083 23.1023 73.7601 22.7315 74.4292 22.4631C75.1025 22.1903 75.8801 22.054 76.7623 22.054C77.3844 22.054 77.9469 22.1286 78.4498 22.2777C78.9526 22.4226 79.3766 22.6357 79.7218 22.9169C80.0712 23.1939 80.3205 23.5348 80.4696 23.9396C80.6188 24.3445 80.6507 24.8068 80.5655 25.3267L79.4469 32H76.5066L76.7367 30.6321H76.66C76.4299 30.9645 76.1593 31.2457 75.8482 31.4759C75.5414 31.706 75.1962 31.8786 74.8127 31.9936C74.4292 32.1087 74.0094 32.1662 73.5534 32.1662ZM74.8702 30.1207C75.1983 30.1207 75.5094 30.0526 75.8034 29.9162C76.0975 29.7798 76.3446 29.5923 76.5449 29.3537C76.7495 29.1108 76.8794 28.8295 76.9348 28.5099L77.0819 27.5767C76.9924 27.6236 76.8794 27.6662 76.7431 27.7045C76.6067 27.7429 76.4618 27.7791 76.3084 27.8132C76.155 27.843 75.9973 27.8729 75.8354 27.9027C75.6777 27.9283 75.5265 27.9517 75.3816 27.973C75.0748 28.0199 74.8084 28.0923 74.5826 28.1903C74.3567 28.2884 74.1756 28.4162 74.0392 28.5739C73.9071 28.7273 73.8262 28.9105 73.7963 29.1236C73.7452 29.4432 73.8198 29.6903 74.0201 29.8651C74.2203 30.0355 74.5037 30.1207 74.8702 30.1207ZM81.3581 32L82.9945 22.1818H86.0307L85.7303 23.9716H85.8326C86.1181 23.3239 86.4909 22.8423 86.9512 22.527C87.4114 22.2074 87.91 22.0476 88.4469 22.0476C88.5918 22.0476 88.7367 22.0582 88.8816 22.0795C89.0307 22.0966 89.1713 22.1222 89.3034 22.1562L88.8432 24.8793C88.6983 24.8239 88.5087 24.7834 88.2743 24.7578C88.04 24.728 87.8269 24.7131 87.6351 24.7131C87.2644 24.7131 86.9192 24.7962 86.5996 24.9624C86.2843 25.1243 86.0158 25.3523 85.7942 25.6463C85.5769 25.9361 85.4341 26.277 85.3659 26.669L84.4838 32H81.3581ZM91.3074 32.1662C90.6852 32.1662 90.1483 32.0618 89.6966 31.853C89.2491 31.6399 88.921 31.3182 88.7122 30.8878C88.5076 30.4574 88.4586 29.9205 88.5652 29.277C88.6589 28.7315 88.8315 28.2734 89.0829 27.9027C89.3386 27.5277 89.6518 27.223 90.0225 26.9886C90.3975 26.7543 90.8152 26.5753 91.2754 26.4517C91.7356 26.3281 92.2172 26.245 92.72 26.2024C93.2825 26.1513 93.7385 26.0959 94.0879 26.0362C94.4416 25.9766 94.7058 25.8935 94.8805 25.7869C95.0552 25.6761 95.1618 25.5227 95.2001 25.3267V25.2947C95.2512 24.9666 95.1809 24.7131 94.9892 24.5341C94.7974 24.3551 94.5098 24.2656 94.1262 24.2656C93.7172 24.2656 93.3677 24.3551 93.0779 24.5341C92.7882 24.7131 92.5858 24.9602 92.4707 25.2756L89.6071 25.1733C89.786 24.5767 90.0929 24.044 90.5275 23.5753C90.9622 23.1023 91.514 22.7315 92.1831 22.4631C92.8564 22.1903 93.6341 22.054 94.5162 22.054C95.1383 22.054 95.7008 22.1286 96.2037 22.2777C96.7065 22.4226 97.1305 22.6357 97.4757 22.9169C97.8251 23.1939 98.0744 23.5348 98.2235 23.9396C98.3727 24.3445 98.4047 24.8068 98.3194 25.3267L97.2008 32H94.2605L94.4906 30.6321H94.4139C94.1838 30.9645 93.9132 31.2457 93.6021 31.4759C93.2953 31.706 92.9501 31.8786 92.5666 31.9936C92.1831 32.1087 91.7633 32.1662 91.3074 32.1662ZM92.6241 30.1207C92.9522 30.1207 93.2633 30.0526 93.5574 29.9162C93.8514 29.7798 94.0985 29.5923 94.2988 29.3537C94.5034 29.1108 94.6333 28.8295 94.6887 28.5099L94.8358 27.5767C94.7463 27.6236 94.6333 27.6662 94.497 27.7045C94.3606 27.7429 94.2157 27.7791 94.0623 27.8132C93.9089 27.843 93.7512 27.8729 93.5893 27.9027C93.4316 27.9283 93.2804 27.9517 93.1355 27.973C92.8287 28.0199 92.5623 28.0923 92.3365 28.1903C92.1106 28.2884 91.9295 28.4162 91.7931 28.5739C91.661 28.7273 91.5801 28.9105 91.5502 29.1236C91.4991 29.4432 91.5737 29.6903 91.774 29.8651C91.9743 30.0355 92.2576 30.1207 92.6241 30.1207ZM103.075 35.8864C102.138 35.8864 101.358 35.7564 100.736 35.4964C100.113 35.2365 99.649 34.8807 99.3422 34.429C99.0353 33.9773 98.8883 33.4659 98.9011 32.8949L101.893 32.7287C101.918 32.9332 101.993 33.1101 102.116 33.2592C102.24 33.4084 102.417 33.5213 102.647 33.598C102.877 33.679 103.162 33.7195 103.503 33.7195C104.028 33.7195 104.483 33.5916 104.871 33.3359C105.259 33.0803 105.498 32.6392 105.587 32.0128L105.875 30.2869H105.766C105.596 30.5895 105.366 30.8601 105.076 31.0987C104.786 31.3374 104.443 31.5249 104.047 31.6612C103.65 31.7976 103.211 31.8658 102.73 31.8658C102.01 31.8658 101.381 31.6996 100.844 31.3672C100.307 31.0305 99.9196 30.5107 99.6809 29.8075C99.4423 29.1001 99.4146 28.1903 99.5978 27.0781C99.7896 25.9318 100.131 24.9879 100.621 24.2464C101.111 23.5007 101.682 22.9489 102.334 22.5909C102.99 22.233 103.661 22.054 104.347 22.054C104.863 22.054 105.289 22.1435 105.626 22.3224C105.962 22.4972 106.226 22.723 106.418 23C106.61 23.277 106.746 23.5646 106.827 23.8629H106.917L107.192 22.1818H110.305L108.668 32.0384C108.536 32.8736 108.214 33.5767 107.703 34.1477C107.192 34.7188 106.537 35.1513 105.741 35.4453C104.944 35.7393 104.055 35.8864 103.075 35.8864ZM104.175 29.5902C104.554 29.5902 104.897 29.4901 105.204 29.2898C105.51 29.0895 105.768 28.8018 105.977 28.4268C106.186 28.0518 106.333 27.6023 106.418 27.0781C106.503 26.5455 106.503 26.0874 106.418 25.7038C106.337 25.3161 106.18 25.0178 105.945 24.8089C105.711 24.6001 105.402 24.4957 105.018 24.4957C104.631 24.4957 104.285 24.6023 103.983 24.8153C103.684 25.0284 103.433 25.3288 103.229 25.7166C103.028 26.1001 102.888 26.554 102.807 27.0781C102.721 27.6023 102.715 28.0518 102.787 28.4268C102.864 28.8018 103.018 29.0895 103.248 29.2898C103.482 29.4901 103.791 29.5902 104.175 29.5902ZM115.225 32.1854C114.198 32.1854 113.346 31.983 112.668 31.5781C111.995 31.169 111.522 30.5874 111.249 29.8331C110.976 29.0746 110.927 28.1733 111.102 27.1293C111.272 26.1151 111.62 25.2287 112.144 24.4702C112.672 23.7074 113.337 23.1151 114.138 22.6932C114.939 22.267 115.832 22.054 116.816 22.054C117.515 22.054 118.135 22.1626 118.676 22.38C119.218 22.5973 119.665 22.9212 120.019 23.3516C120.373 23.7777 120.613 24.3018 120.741 24.924C120.869 25.5462 120.865 26.2599 120.728 27.0653L120.607 27.8452H112.08L112.368 26.0298H117.993C118.044 25.6974 118.016 25.4013 117.909 25.1413C117.803 24.8814 117.63 24.679 117.392 24.5341C117.157 24.3849 116.87 24.3104 116.529 24.3104C116.184 24.3104 115.86 24.3913 115.557 24.5533C115.259 24.7109 115.005 24.924 114.797 25.1925C114.588 25.4609 114.451 25.7635 114.387 26.1001L114.049 27.9602C113.98 28.3736 114 28.7273 114.106 29.0213C114.213 29.3153 114.396 29.5412 114.656 29.6989C114.916 29.8523 115.25 29.929 115.659 29.929C115.932 29.929 116.188 29.8928 116.426 29.8203C116.665 29.7436 116.878 29.6307 117.066 29.4815C117.257 29.3281 117.413 29.1428 117.532 28.9254L120.383 29.0085C120.153 29.652 119.797 30.2124 119.316 30.6896C118.834 31.1626 118.246 31.5312 117.551 31.7955C116.861 32.0554 116.086 32.1854 115.225 32.1854Z" fill="white"/>
</svg>
